<mxfile host="drawio-plugin" modified="2021-10-03T19:25:16.233Z" agent="5.0 (X11; Linux x86_64) AppleWebKit/537.36 (KHTML, like Gecko) Chrome/89.0.4389.114 Safari/537.36" etag="jwtbwNFBhNaRgzM2DwNx" version="14.7.4" type="embed"><diagram id="23iRSUPoRavnBvh4doch" name="Page-1"><mxGraphModel dx="1086" dy="588" grid="1" gridSize="10" guides="1" tooltips="1" connect="1" arrows="1" fold="1" page="1" pageScale="1" pageWidth="827" pageHeight="1169" math="0" shadow="0"><root><mxCell id="0"/><mxCell id="1" parent="0"/><mxCell id="103" value="Restaurant " style="swimlane;fontStyle=1;align=center;verticalAlign=top;childLayout=stackLayout;horizontal=1;startSize=26;horizontalStack=0;resizeParent=1;resizeParentMax=0;resizeLast=0;collapsible=1;marginBottom=0;fillColor=#ffcd28;strokeColor=#d79b00;gradientColor=#ffa500;" parent="1" vertex="1"><mxGeometry x="9" y="216" width="201" height="140" as="geometry"/></mxCell><mxCell id="104" value="# add_idtable_when_servicing: list&#10;# id_table_free_or_not: dict&#10;+ number_of_clients: int&#10;+ clients_list:dict" style="text;strokeColor=none;fillColor=none;align=left;verticalAlign=top;spacingLeft=4;spacingRight=4;overflow=hidden;rotatable=0;points=[[0,0.5],[1,0.5]];portConstraint=eastwest;" parent="103" vertex="1"><mxGeometry y="26" width="201" height="64" as="geometry"/></mxCell><mxCell id="105" value="" style="line;strokeWidth=1;fillColor=none;align=left;verticalAlign=middle;spacingTop=-1;spacingLeft=3;spacingRight=3;rotatable=0;labelPosition=right;points=[];portConstraint=eastwest;" parent="103" vertex="1"><mxGeometry y="90" width="201" height="8" as="geometry"/></mxCell><mxCell id="106" value="+ add_client()&#10;+ remove_client()" style="text;strokeColor=none;fillColor=none;align=left;verticalAlign=top;spacingLeft=4;spacingRight=4;overflow=hidden;rotatable=0;points=[[0,0.5],[1,0.5]];portConstraint=eastwest;" parent="103" vertex="1"><mxGeometry y="98" width="201" height="42" as="geometry"/></mxCell><mxCell id="107" value="Client" style="swimlane;fontStyle=1;align=center;verticalAlign=top;childLayout=stackLayout;horizontal=1;startSize=26;horizontalStack=0;resizeParent=1;resizeParentMax=0;resizeLast=0;collapsible=1;marginBottom=0;fillColor=#fff2cc;strokeColor=#d6b656;gradientColor=#ffd966;" parent="1" vertex="1"><mxGeometry x="9" y="416" width="160" height="140" as="geometry"/></mxCell><mxCell id="108" value="+ client_id:int&#10;+ payoff: bool" style="text;strokeColor=none;fillColor=none;align=left;verticalAlign=top;spacingLeft=4;spacingRight=4;overflow=hidden;rotatable=0;points=[[0,0.5],[1,0.5]];portConstraint=eastwest;" parent="107" vertex="1"><mxGeometry y="26" width="160" height="34" as="geometry"/></mxCell><mxCell id="109" value="" style="line;strokeWidth=1;fillColor=none;align=left;verticalAlign=middle;spacingTop=-1;spacingLeft=3;spacingRight=3;rotatable=0;labelPosition=right;points=[];portConstraint=eastwest;" parent="107" vertex="1"><mxGeometry y="60" width="160" height="8" as="geometry"/></mxCell><mxCell id="110" value="+ make_order()&#10;+ watch_menu()&#10;+ watch_payment()&#10;+ payoff()" style="text;strokeColor=none;fillColor=none;align=left;verticalAlign=top;spacingLeft=4;spacingRight=4;overflow=hidden;rotatable=0;points=[[0,0.5],[1,0.5]];portConstraint=eastwest;" parent="107" vertex="1"><mxGeometry y="68" width="160" height="72" as="geometry"/></mxCell><mxCell id="111" value="" style="endArrow=diamondThin;endFill=0;endSize=24;html=1;entryX=0.405;entryY=0.985;entryDx=0;entryDy=0;entryPerimeter=0;" parent="1" source="107" target="106" edge="1"><mxGeometry width="160" relative="1" as="geometry"><mxPoint x="79" y="376" as="sourcePoint"/><mxPoint x="239" y="376" as="targetPoint"/></mxGeometry></mxCell><mxCell id="112" value="15" style="text;strokeColor=none;fillColor=none;align=left;verticalAlign=top;spacingLeft=4;spacingRight=4;overflow=hidden;rotatable=0;points=[[0,0.5],[1,0.5]];portConstraint=eastwest;" parent="1" vertex="1"><mxGeometry x="60" y="364" width="31" height="26" as="geometry"/></mxCell><mxCell id="113" value="*" style="text;strokeColor=none;fillColor=none;align=left;verticalAlign=top;spacingLeft=4;spacingRight=4;overflow=hidden;rotatable=0;points=[[0,0.5],[1,0.5]];portConstraint=eastwest;" parent="1" vertex="1"><mxGeometry x="69" y="390" width="21" height="26" as="geometry"/></mxCell><mxCell id="114" value="Order" style="swimlane;fontStyle=1;align=center;verticalAlign=top;childLayout=stackLayout;horizontal=1;startSize=26;horizontalStack=0;resizeParent=1;resizeParentMax=0;resizeLast=0;collapsible=1;marginBottom=0;fillColor=#cce5ff;strokeColor=#36393d;" parent="1" vertex="1"><mxGeometry x="242" y="416" width="160" height="130" as="geometry"/></mxCell><mxCell id="115" value="+id_order: int&#10;+orders_list: dict&#10;&#10;" style="text;strokeColor=none;fillColor=none;align=left;verticalAlign=top;spacingLeft=4;spacingRight=4;overflow=hidden;rotatable=0;points=[[0,0.5],[1,0.5]];portConstraint=eastwest;" parent="114" vertex="1"><mxGeometry y="26" width="160" height="44" as="geometry"/></mxCell><mxCell id="116" value="" style="line;strokeWidth=1;fillColor=none;align=left;verticalAlign=middle;spacingTop=-1;spacingLeft=3;spacingRight=3;rotatable=0;labelPosition=right;points=[];portConstraint=eastwest;" parent="114" vertex="1"><mxGeometry y="70" width="160" height="8" as="geometry"/></mxCell><mxCell id="117" value="+add_order_to_list()&#10;+save_orders_list()" style="text;strokeColor=none;fillColor=none;align=left;verticalAlign=top;spacingLeft=4;spacingRight=4;overflow=hidden;rotatable=0;points=[[0,0.5],[1,0.5]];portConstraint=eastwest;" parent="114" vertex="1"><mxGeometry y="78" width="160" height="52" as="geometry"/></mxCell><mxCell id="118" value="" style="endArrow=diamondThin;endFill=0;endSize=24;html=1;" parent="1" target="108" edge="1"><mxGeometry width="160" relative="1" as="geometry"><mxPoint x="242" y="456" as="sourcePoint"/><mxPoint x="429" y="346" as="targetPoint"/></mxGeometry></mxCell><mxCell id="119" value="1" style="text;strokeColor=none;fillColor=none;align=left;verticalAlign=top;spacingLeft=4;spacingRight=4;overflow=hidden;rotatable=0;points=[[0,0.5],[1,0.5]];portConstraint=eastwest;" parent="1" vertex="1"><mxGeometry x="169" y="426" width="100" height="26" as="geometry"/></mxCell><mxCell id="120" value="*" style="text;strokeColor=none;fillColor=none;align=left;verticalAlign=top;spacingLeft=4;spacingRight=4;overflow=hidden;rotatable=0;points=[[0,0.5],[1,0.5]];portConstraint=eastwest;" parent="1" vertex="1"><mxGeometry x="219" y="426" width="100" height="26" as="geometry"/></mxCell><mxCell id="121" value="Menu" style="swimlane;fontStyle=1;align=center;verticalAlign=top;childLayout=stackLayout;horizontal=1;startSize=26;horizontalStack=0;resizeParent=1;resizeParentMax=0;resizeLast=0;collapsible=1;marginBottom=0;fillColor=#cce5ff;strokeColor=#36393d;" parent="1" vertex="1"><mxGeometry x="129" y="590" width="160" height="160" as="geometry"/></mxCell><mxCell id="122" value="+id_dish:int&#10;+name_dish: str&#10;+size:int&#10;+price:int&#10;+dish_list: list&#10;&#10;" style="text;strokeColor=none;fillColor=none;align=left;verticalAlign=top;spacingLeft=4;spacingRight=4;overflow=hidden;rotatable=0;points=[[0,0.5],[1,0.5]];portConstraint=eastwest;" parent="121" vertex="1"><mxGeometry y="26" width="160" height="84" as="geometry"/></mxCell><mxCell id="123" value="" style="line;strokeWidth=1;fillColor=none;align=left;verticalAlign=middle;spacingTop=-1;spacingLeft=3;spacingRight=3;rotatable=0;labelPosition=right;points=[];portConstraint=eastwest;" parent="121" vertex="1"><mxGeometry y="110" width="160" height="8" as="geometry"/></mxCell><mxCell id="124" value="+add_dish_to_list()&#10;+remove_dish_from_list()" style="text;strokeColor=none;fillColor=none;align=left;verticalAlign=top;spacingLeft=4;spacingRight=4;overflow=hidden;rotatable=0;points=[[0,0.5],[1,0.5]];portConstraint=eastwest;" parent="121" vertex="1"><mxGeometry y="118" width="160" height="42" as="geometry"/></mxCell><mxCell id="125" value="" style="endArrow=open;endFill=1;endSize=12;html=1;entryX=0.838;entryY=1.025;entryDx=0;entryDy=0;entryPerimeter=0;exitX=0.094;exitY=0.006;exitDx=0;exitDy=0;exitPerimeter=0;" parent="1" source="121" target="110" edge="1"><mxGeometry width="160" relative="1" as="geometry"><mxPoint x="149" y="556" as="sourcePoint"/><mxPoint x="99" y="596" as="targetPoint"/></mxGeometry></mxCell><mxCell id="126" value="0" style="text;strokeColor=none;fillColor=none;align=left;verticalAlign=top;spacingLeft=4;spacingRight=4;overflow=hidden;rotatable=0;points=[[0,0.5],[1,0.5]];portConstraint=eastwest;" parent="1" vertex="1"><mxGeometry x="149" y="556" width="20" height="26" as="geometry"/></mxCell><mxCell id="127" value="*" style="text;strokeColor=none;fillColor=none;align=left;verticalAlign=top;spacingLeft=4;spacingRight=4;overflow=hidden;rotatable=0;points=[[0,0.5],[1,0.5]];portConstraint=eastwest;" parent="1" vertex="1"><mxGeometry x="149" y="566" width="20" height="26" as="geometry"/></mxCell><mxCell id="135" value="Payment" style="swimlane;fontStyle=1;align=center;verticalAlign=top;childLayout=stackLayout;horizontal=1;startSize=26;horizontalStack=0;resizeParent=1;resizeParentMax=0;resizeLast=0;collapsible=1;marginBottom=0;fillColor=#cce5ff;strokeColor=#36393d;" parent="1" vertex="1"><mxGeometry x="239" y="216" width="160" height="140" as="geometry"/></mxCell><mxCell id="136" value="+sum_of_payment:float&#10;+discount:float&#10;+payment_status:bool" style="text;strokeColor=none;fillColor=none;align=left;verticalAlign=top;spacingLeft=4;spacingRight=4;overflow=hidden;rotatable=0;points=[[0,0.5],[1,0.5]];portConstraint=eastwest;" parent="135" vertex="1"><mxGeometry y="26" width="160" height="54" as="geometry"/></mxCell><mxCell id="137" value="" style="line;strokeWidth=1;fillColor=none;align=left;verticalAlign=middle;spacingTop=-1;spacingLeft=3;spacingRight=3;rotatable=0;labelPosition=right;points=[];portConstraint=eastwest;" parent="135" vertex="1"><mxGeometry y="80" width="160" height="8" as="geometry"/></mxCell><mxCell id="138" value="+charge_discount()&#10;+change_payment_status()" style="text;strokeColor=none;fillColor=none;align=left;verticalAlign=top;spacingLeft=4;spacingRight=4;overflow=hidden;rotatable=0;points=[[0,0.5],[1,0.5]];portConstraint=eastwest;" parent="135" vertex="1"><mxGeometry y="88" width="160" height="52" as="geometry"/></mxCell><mxCell id="139" value="" style="endArrow=block;startArrow=block;endFill=1;startFill=1;html=1;entryX=0.163;entryY=1.096;entryDx=0;entryDy=0;exitX=0.75;exitY=0;exitDx=0;exitDy=0;entryPerimeter=0;" parent="1" source="107" target="138" edge="1"><mxGeometry width="160" relative="1" as="geometry"><mxPoint x="149" y="376" as="sourcePoint"/><mxPoint x="329" y="376" as="targetPoint"/><Array as="points"><mxPoint x="128" y="390"/><mxPoint x="200" y="390"/><mxPoint x="265" y="390"/></Array></mxGeometry></mxCell><mxCell id="140" value="1..1" style="text;strokeColor=none;fillColor=none;align=left;verticalAlign=top;spacingLeft=4;spacingRight=4;overflow=hidden;rotatable=0;points=[[0,0.5],[1,0.5]];portConstraint=eastwest;" parent="1" vertex="1"><mxGeometry x="179" y="364" width="100" height="26" as="geometry"/></mxCell><mxCell id="143" value="1" style="text;strokeColor=none;fillColor=none;align=left;verticalAlign=top;spacingLeft=4;spacingRight=4;overflow=hidden;rotatable=0;points=[[0,0.5],[1,0.5]];portConstraint=eastwest;" parent="1" vertex="1"><mxGeometry x="314" y="356" width="100" height="26" as="geometry"/></mxCell><mxCell id="144" value="1" style="text;strokeColor=none;fillColor=none;align=left;verticalAlign=top;spacingLeft=4;spacingRight=4;overflow=hidden;rotatable=0;points=[[0,0.5],[1,0.5]];portConstraint=eastwest;" parent="1" vertex="1"><mxGeometry x="314" y="376" width="100" height="26" as="geometry"/></mxCell><mxCell id="145" value="Waiter" style="swimlane;fontStyle=1;align=center;verticalAlign=top;childLayout=stackLayout;horizontal=1;startSize=26;horizontalStack=0;resizeParent=1;resizeParentMax=0;resizeLast=0;collapsible=1;marginBottom=0;fillColor=#ffcccc;strokeColor=#36393d;" parent="1" vertex="1"><mxGeometry x="449" y="400" width="160" height="170" as="geometry"/></mxCell><mxCell id="146" value="+id_waiter:int&#10;+order_status: str&#10;+number_of_orders:int&#10;#salary_waiter: float" style="text;strokeColor=none;fillColor=none;align=left;verticalAlign=top;spacingLeft=4;spacingRight=4;overflow=hidden;rotatable=0;points=[[0,0.5],[1,0.5]];portConstraint=eastwest;" parent="145" vertex="1"><mxGeometry y="26" width="160" height="64" as="geometry"/></mxCell><mxCell id="147" value="" style="line;strokeWidth=1;fillColor=none;align=left;verticalAlign=middle;spacingTop=-1;spacingLeft=3;spacingRight=3;rotatable=0;labelPosition=right;points=[];portConstraint=eastwest;" parent="145" vertex="1"><mxGeometry y="90" width="160" height="8" as="geometry"/></mxCell><mxCell id="148" value="+open_order()&#10;+give_order_to_cook()&#10;+give_order_to_client()&#10;+change_order_status()" style="text;strokeColor=none;fillColor=none;align=left;verticalAlign=top;spacingLeft=4;spacingRight=4;overflow=hidden;rotatable=0;points=[[0,0.5],[1,0.5]];portConstraint=eastwest;" parent="145" vertex="1"><mxGeometry y="98" width="160" height="72" as="geometry"/></mxCell><mxCell id="149" value="" style="endArrow=diamondThin;endFill=0;endSize=24;html=1;" parent="1" edge="1"><mxGeometry width="160" relative="1" as="geometry"><mxPoint x="402" y="452" as="sourcePoint"/><mxPoint x="450" y="452" as="targetPoint"/></mxGeometry></mxCell><mxCell id="150" value="3..1" style="text;strokeColor=none;fillColor=none;align=left;verticalAlign=top;spacingLeft=4;spacingRight=4;overflow=hidden;rotatable=0;points=[[0,0.5],[1,0.5]];portConstraint=eastwest;" parent="1" vertex="1"><mxGeometry x="409" y="426" width="31" height="26" as="geometry"/></mxCell><mxCell id="152" value="" style="endArrow=open;endFill=1;endSize=12;html=1;entryX=1;entryY=0.5;entryDx=0;entryDy=0;" parent="1" target="104" edge="1"><mxGeometry width="160" relative="1" as="geometry"><mxPoint x="238" y="274" as="sourcePoint"/><mxPoint x="210" y="281" as="targetPoint"/></mxGeometry></mxCell><mxCell id="153" value="Cook" style="swimlane;fontStyle=1;align=center;verticalAlign=top;childLayout=stackLayout;horizontal=1;startSize=26;horizontalStack=0;resizeParent=1;resizeParentMax=0;resizeLast=0;collapsible=1;marginBottom=0;fillColor=#ffcccc;strokeColor=#36393d;" parent="1" vertex="1"><mxGeometry x="429" y="216" width="180" height="140" as="geometry"/></mxCell><mxCell id="154" value="+id_cook: int&#10;#salary_cook: float&#10;+id_order_taking_status: dict&#10;&#10;" style="text;strokeColor=none;fillColor=none;align=left;verticalAlign=top;spacingLeft=4;spacingRight=4;overflow=hidden;rotatable=0;points=[[0,0.5],[1,0.5]];portConstraint=eastwest;" parent="153" vertex="1"><mxGeometry y="26" width="180" height="54" as="geometry"/></mxCell><mxCell id="155" value="" style="line;strokeWidth=1;fillColor=none;align=left;verticalAlign=middle;spacingTop=-1;spacingLeft=3;spacingRight=3;rotatable=0;labelPosition=right;points=[];portConstraint=eastwest;" parent="153" vertex="1"><mxGeometry y="80" width="180" height="8" as="geometry"/></mxCell><mxCell id="156" value="+change_order_readiness()&#10;+show_id_order_readiness()&#10;+take_order()" style="text;strokeColor=none;fillColor=none;align=left;verticalAlign=top;spacingLeft=4;spacingRight=4;overflow=hidden;rotatable=0;points=[[0,0.5],[1,0.5]];portConstraint=eastwest;" parent="153" vertex="1"><mxGeometry y="88" width="180" height="52" as="geometry"/></mxCell><mxCell id="157" value="Income" style="swimlane;fontStyle=1;align=center;verticalAlign=top;childLayout=stackLayout;horizontal=1;startSize=26;horizontalStack=0;resizeParent=1;resizeParentMax=0;resizeLast=0;collapsible=1;marginBottom=0;fillColor=#cdeb8b;strokeColor=#36393d;" parent="1" vertex="1"><mxGeometry x="620" y="216" width="180" height="130" as="geometry"/></mxCell><mxCell id="158" value="+ best_sits_list: int&#10;+ proceeds_per_month: float" style="text;strokeColor=none;fillColor=none;align=left;verticalAlign=top;spacingLeft=4;spacingRight=4;overflow=hidden;rotatable=0;points=[[0,0.5],[1,0.5]];portConstraint=eastwest;" parent="157" vertex="1"><mxGeometry y="26" width="180" height="44" as="geometry"/></mxCell><mxCell id="159" value="" style="line;strokeWidth=1;fillColor=none;align=left;verticalAlign=middle;spacingTop=-1;spacingLeft=3;spacingRight=3;rotatable=0;labelPosition=right;points=[];portConstraint=eastwest;" parent="157" vertex="1"><mxGeometry y="70" width="180" height="8" as="geometry"/></mxCell><mxCell id="160" value="+ show_proceeds()&#10;+ show_best_sits()&#10;+show_worst_sits()" style="text;strokeColor=none;fillColor=none;align=left;verticalAlign=top;spacingLeft=4;spacingRight=4;overflow=hidden;rotatable=0;points=[[0,0.5],[1,0.5]];portConstraint=eastwest;" parent="157" vertex="1"><mxGeometry y="78" width="180" height="52" as="geometry"/></mxCell><mxCell id="161" value="Admin" style="swimlane;fontStyle=1;align=center;verticalAlign=top;childLayout=stackLayout;horizontal=1;startSize=26;horizontalStack=0;resizeParent=1;resizeParentMax=0;resizeLast=0;collapsible=1;marginBottom=0;fillColor=#ffcccc;strokeColor=#36393d;" parent="1" vertex="1"><mxGeometry x="379" y="590" width="210" height="180" as="geometry"/></mxCell><mxCell id="162" value="                  per month&#10;+salary_admin: float&#10;+unforeseen_spending: float&#10;+standard_costs: float&#10;+payoff_status: bool&#10;" style="text;strokeColor=none;fillColor=none;align=left;verticalAlign=top;spacingLeft=4;spacingRight=4;overflow=hidden;rotatable=0;points=[[0,0.5],[1,0.5]];portConstraint=eastwest;" parent="161" vertex="1"><mxGeometry y="26" width="210" height="84" as="geometry"/></mxCell><mxCell id="163" value="" style="line;strokeWidth=1;fillColor=none;align=left;verticalAlign=middle;spacingTop=-1;spacingLeft=3;spacingRight=3;rotatable=0;labelPosition=right;points=[];portConstraint=eastwest;" parent="161" vertex="1"><mxGeometry y="110" width="210" height="8" as="geometry"/></mxCell><mxCell id="164" value="+change_standard_costs()&#10;+change_payoff_status()&#10;+change_unforeseen_spendings()" style="text;strokeColor=none;fillColor=none;align=left;verticalAlign=top;spacingLeft=4;spacingRight=4;overflow=hidden;rotatable=0;points=[[0,0.5],[1,0.5]];portConstraint=eastwest;" parent="161" vertex="1"><mxGeometry y="118" width="210" height="62" as="geometry"/></mxCell><mxCell id="165" value="Expense" style="swimlane;fontStyle=1;align=center;verticalAlign=top;childLayout=stackLayout;horizontal=1;startSize=26;horizontalStack=0;resizeParent=1;resizeParentMax=0;resizeLast=0;collapsible=1;marginBottom=0;fillColor=#cdeb8b;strokeColor=#36393d;" parent="1" vertex="1"><mxGeometry x="610" y="590" width="200" height="160" as="geometry"/></mxCell><mxCell id="166" value="+all_costs_per_day: float&#10;+all_costs_per_month: float&#10;+sum_month_salary: float&#10;+sum_month_spending: float&#10; " style="text;strokeColor=none;fillColor=none;align=left;verticalAlign=top;spacingLeft=4;spacingRight=4;overflow=hidden;rotatable=0;points=[[0,0.5],[1,0.5]];portConstraint=eastwest;" parent="165" vertex="1"><mxGeometry y="26" width="200" height="64" as="geometry"/></mxCell><mxCell id="167" value="" style="line;strokeWidth=1;fillColor=none;align=left;verticalAlign=middle;spacingTop=-1;spacingLeft=3;spacingRight=3;rotatable=0;labelPosition=right;points=[];portConstraint=eastwest;" parent="165" vertex="1"><mxGeometry y="90" width="200" height="8" as="geometry"/></mxCell><mxCell id="168" value="+watch_all_coasts_per_day()&#10;+watch_all_coasts_per_month()&#10;+watch_salaries()&#10;+watch_spending()&#10;" style="text;strokeColor=none;fillColor=none;align=left;verticalAlign=top;spacingLeft=4;spacingRight=4;overflow=hidden;rotatable=0;points=[[0,0.5],[1,0.5]];portConstraint=eastwest;" parent="165" vertex="1"><mxGeometry y="98" width="200" height="62" as="geometry"/></mxCell><mxCell id="169" value="IncomeExpenses" style="swimlane;fontStyle=1;align=center;verticalAlign=top;childLayout=stackLayout;horizontal=1;startSize=26;horizontalStack=0;resizeParent=1;resizeParentMax=0;resizeLast=0;collapsible=1;marginBottom=0;fillColor=#cdeb8b;strokeColor=#36393d;" parent="1" vertex="1"><mxGeometry x="617" y="416" width="210" height="138" as="geometry"/></mxCell><mxCell id="170" value="+change_tables_Id:descriptions: dict&#10;+net_profit_per_year: float&#10;+most_often_ordering_dishes: dict " style="text;strokeColor=none;fillColor=none;align=left;verticalAlign=top;spacingLeft=4;spacingRight=4;overflow=hidden;rotatable=0;points=[[0,0.5],[1,0.5]];portConstraint=eastwest;" parent="169" vertex="1"><mxGeometry y="26" width="210" height="54" as="geometry"/></mxCell><mxCell id="171" value="" style="line;strokeWidth=1;fillColor=none;align=left;verticalAlign=middle;spacingTop=-1;spacingLeft=3;spacingRight=3;rotatable=0;labelPosition=right;points=[];portConstraint=eastwest;" parent="169" vertex="1"><mxGeometry y="80" width="210" height="8" as="geometry"/></mxCell><mxCell id="172" value="+most_often_ordering_dishes()&#10;+show_net_profit()&#10;+add_changes_to_tables_list()" style="text;strokeColor=none;fillColor=none;align=left;verticalAlign=top;spacingLeft=4;spacingRight=4;overflow=hidden;rotatable=0;points=[[0,0.5],[1,0.5]];portConstraint=eastwest;" parent="169" vertex="1"><mxGeometry y="88" width="210" height="50" as="geometry"/></mxCell><mxCell id="173" value="" style="endArrow=block;endSize=16;endFill=0;html=1;exitX=0.511;exitY=-0.007;exitDx=0;exitDy=0;exitPerimeter=0;" parent="1" source="165" edge="1"><mxGeometry x="-0.5641" y="60" width="160" relative="1" as="geometry"><mxPoint x="589" y="740" as="sourcePoint"/><mxPoint x="711" y="555" as="targetPoint"/><mxPoint as="offset"/></mxGeometry></mxCell><mxCell id="174" value="" style="endArrow=block;endSize=16;endFill=0;html=1;" parent="1" source="160" edge="1"><mxGeometry x="-0.5641" y="60" width="160" relative="1" as="geometry"><mxPoint x="769.32" y="376" as="sourcePoint"/><mxPoint x="709" y="415" as="targetPoint"/><mxPoint as="offset"/></mxGeometry></mxCell><mxCell id="179" value="" style="endArrow=none;html=1;exitX=0.199;exitY=-0.014;exitDx=0;exitDy=0;exitPerimeter=0;" parent="1" source="161" edge="1"><mxGeometry width="50" height="50" relative="1" as="geometry"><mxPoint x="429" y="590" as="sourcePoint"/><mxPoint x="420" y="460" as="targetPoint"/></mxGeometry></mxCell><mxCell id="180" value="" style="endArrow=open;endFill=1;endSize=12;html=1;entryX=0.507;entryY=1.132;entryDx=0;entryDy=0;entryPerimeter=0;" parent="1" target="156" edge="1"><mxGeometry width="160" relative="1" as="geometry"><mxPoint x="420" y="420" as="sourcePoint"/><mxPoint x="609" y="380" as="targetPoint"/><Array as="points"><mxPoint x="420" y="390"/><mxPoint x="520" y="390"/></Array></mxGeometry></mxCell><mxCell id="182" value="" style="endArrow=open;endFill=1;endSize=12;html=1;exitX=0.633;exitY=0.005;exitDx=0;exitDy=0;exitPerimeter=0;entryX=0.392;entryY=0.989;entryDx=0;entryDy=0;entryPerimeter=0;" parent="1" source="161" target="148" edge="1"><mxGeometry width="160" relative="1" as="geometry"><mxPoint x="639" y="480" as="sourcePoint"/><mxPoint x="508" y="569" as="targetPoint"/></mxGeometry></mxCell><mxCell id="184" value="" style="endArrow=diamondThin;endFill=0;endSize=24;html=1;exitX=0.464;exitY=1.027;exitDx=0;exitDy=0;exitPerimeter=0;entryX=0.447;entryY=-0.012;entryDx=0;entryDy=0;entryPerimeter=0;" parent="1" source="138" target="114" edge="1"><mxGeometry width="160" relative="1" as="geometry"><mxPoint x="329" y="420" as="sourcePoint"/><mxPoint x="489" y="420" as="targetPoint"/></mxGeometry></mxCell><mxCell id="185" value="" style="endArrow=diamondThin;endFill=0;endSize=24;html=1;exitX=0.5;exitY=0;exitDx=0;exitDy=0;entryX=0.5;entryY=0;entryDx=0;entryDy=0;" parent="1" source="157" target="135" edge="1"><mxGeometry width="160" relative="1" as="geometry"><mxPoint x="579" y="160" as="sourcePoint"/><mxPoint x="339" y="160" as="targetPoint"/><Array as="points"><mxPoint x="709" y="180"/><mxPoint x="319" y="180"/></Array></mxGeometry></mxCell><mxCell id="189" value="" style="endArrow=block;startArrow=block;endFill=1;startFill=1;html=1;exitX=0.808;exitY=1.011;exitDx=0;exitDy=0;exitPerimeter=0;" parent="1" source="156" edge="1"><mxGeometry width="160" relative="1" as="geometry"><mxPoint x="581" y="356" as="sourcePoint"/><mxPoint x="574" y="400" as="targetPoint"/></mxGeometry></mxCell><mxCell id="190" value="" style="endArrow=open;endFill=1;endSize=12;html=1;entryX=1;entryY=0.5;entryDx=0;entryDy=0;" parent="1" target="110" edge="1"><mxGeometry width="160" relative="1" as="geometry"><mxPoint x="259" y="560" as="sourcePoint"/><mxPoint x="369" y="550" as="targetPoint"/><Array as="points"><mxPoint x="209" y="560"/><mxPoint x="209" y="520"/></Array></mxGeometry></mxCell><mxCell id="191" value="" style="endArrow=none;html=1;" parent="1" edge="1"><mxGeometry width="50" height="50" relative="1" as="geometry"><mxPoint x="280" y="560" as="sourcePoint"/><mxPoint x="410" y="560" as="targetPoint"/></mxGeometry></mxCell><mxCell id="192" value="" style="endArrow=none;html=1;" parent="1" edge="1"><mxGeometry width="50" height="50" relative="1" as="geometry"><mxPoint x="430" y="560" as="sourcePoint"/><mxPoint x="450" y="560" as="targetPoint"/></mxGeometry></mxCell><mxCell id="194" value="" style="endArrow=diamondThin;endFill=0;endSize=24;html=1;exitX=0.504;exitY=1.072;exitDx=0;exitDy=0;exitPerimeter=0;entryX=0.665;entryY=1.042;entryDx=0;entryDy=0;entryPerimeter=0;" parent="1" source="168" target="164" edge="1"><mxGeometry width="160" relative="1" as="geometry"><mxPoint x="619" y="840" as="sourcePoint"/><mxPoint x="519" y="840" as="targetPoint"/><Array as="points"><mxPoint x="710" y="810"/><mxPoint x="519" y="810"/></Array></mxGeometry></mxCell><mxCell id="196" value="" style="endArrow=open;endFill=1;endSize=12;html=1;entryX=0.75;entryY=0;entryDx=0;entryDy=0;" parent="1" target="114" edge="1"><mxGeometry width="160" relative="1" as="geometry"><mxPoint x="509" y="380" as="sourcePoint"/><mxPoint x="379" y="380" as="targetPoint"/><Array as="points"><mxPoint x="361" y="380"/></Array></mxGeometry></mxCell><mxCell id="197" value="" style="endArrow=none;html=1;" parent="1" edge="1"><mxGeometry width="50" height="50" relative="1" as="geometry"><mxPoint x="529" y="380" as="sourcePoint"/><mxPoint x="569" y="380" as="targetPoint"/></mxGeometry></mxCell><mxCell id="198" value="" style="endArrow=none;html=1;" parent="1" edge="1"><mxGeometry width="50" height="50" relative="1" as="geometry"><mxPoint x="579" y="380" as="sourcePoint"/><mxPoint x="675" y="413" as="targetPoint"/><Array as="points"><mxPoint x="675" y="380"/></Array></mxGeometry></mxCell><mxCell id="201" value="" style="endArrow=open;endFill=1;endSize=12;html=1;entryX=0.75;entryY=0;entryDx=0;entryDy=0;" parent="1" target="103" edge="1"><mxGeometry width="160" relative="1" as="geometry"><mxPoint x="749" y="216" as="sourcePoint"/><mxPoint x="150" y="170" as="targetPoint"/><Array as="points"><mxPoint x="749" y="170"/><mxPoint x="160" y="170"/></Array></mxGeometry></mxCell><mxCell id="202" value="" style="endArrow=open;endFill=1;endSize=12;html=1;exitX=0.181;exitY=1.019;exitDx=0;exitDy=0;exitPerimeter=0;entryX=0.888;entryY=-0.012;entryDx=0;entryDy=0;entryPerimeter=0;" edge="1" parent="1" source="117" target="121"><mxGeometry width="160" relative="1" as="geometry"><mxPoint x="220" y="790" as="sourcePoint"/><mxPoint x="380" y="790" as="targetPoint"/></mxGeometry></mxCell></root></mxGraphModel></diagram></mxfile>